<?xml version="1.0" standalone="no"?>
<!DOCTYPE svg PUBLIC "-//W3C//DTD SVG 20010904//EN"
 "http://www.w3.org/TR/2001/REC-SVG-20010904/DTD/svg10.dtd">
<svg version="1.0" xmlns="http://www.w3.org/2000/svg"
 width="512.000000pt" height="512.000000pt" viewBox="0 0 512.000000 512.000000"
 preserveAspectRatio="xMidYMid meet">
<metadata>
Created by potrace 1.11, written by Peter Selinger 2001-2013
</metadata>
<g transform="translate(0.000000,512.000000) scale(0.100000,-0.100000)"
fill="#000000" stroke="none">
<path d="M0 2560 l0 -2560 2560 0 2560 0 0 2560 0 2560 -2560 0 -2560 0 0
-2560z m2489 2449 c17 -6 36 -19 41 -29 6 -12 10 -293 10 -753 l0 -734 -23
-34 c-12 -18 -38 -44 -57 -57 l-34 -22 -564 2 -564 3 -20 25 c-27 33 -18 75
35 169 48 84 90 125 144 140 22 6 143 11 282 11 225 0 248 2 286 20 23 11 47
32 53 46 8 16 12 99 12 239 0 210 0 214 -22 229 -32 23 -54 20 -170 -20 -417
-144 -746 -410 -937 -759 -98 -178 -137 -301 -108 -340 15 -19 33 -20 589 -30
604 -11 613 -11 642 -57 8 -13 1 -26 -33 -63 -51 -55 -86 -131 -106 -229 -12
-56 -22 -77 -45 -98 l-30 -28 -823 0 c-763 0 -825 1 -857 18 -61 30 -65 52
-35 215 114 623 345 1097 715 1467 357 357 844 590 1395 665 118 16 185 18
224 4z m517 -18 c172 -30 331 -71 359 -93 36 -28 33 -64 -24 -287 l-49 -191
41 -11 c23 -6 64 -17 91 -25 27 -8 53 -14 57 -14 8 0 111 174 158 267 63 126
98 126 285 -1 241 -163 296 -215 283 -267 -4 -13 -54 -82 -111 -154 -58 -71
-105 -135 -106 -140 0 -6 31 -41 69 -79 l68 -68 148 101 c101 69 157 101 176
101 41 0 84 -43 167 -164 137 -199 176 -301 137 -360 -10 -15 -77 -53 -179
-101 l-163 -77 31 -92 c16 -50 30 -92 31 -93 0 -1 86 9 190 23 270 34 270 34
316 -212 42 -227 46 -283 22 -313 l-20 -25 -344 3 c-348 3 -420 8 -445 32 -8
8 -17 57 -23 119 -30 305 -176 623 -391 853 -63 67 -118 111 -232 188 -82 54
-179 115 -216 133 -96 48 -258 101 -401 130 -122 25 -170 44 -172 69 -6 71 5
661 12 690 22 82 51 90 235 58z m-23 -1032 c124 -25 208 -61 247 -106 l30 -34
0 -278 c0 -266 1 -279 21 -305 l20 -26 200 0 c213 0 231 -3 276 -52 35 -37 89
-164 117 -277 31 -124 32 -151 7 -182 l-19 -24 -316 -3 c-211 -2 -322 1 -336
8 -25 13 -45 52 -72 138 -29 95 -69 170 -123 230 -54 60 -107 94 -184 116 -75
22 -98 40 -110 83 -14 50 -14 606 -1 655 14 49 52 78 102 78 22 0 86 -9 141
-21z m-328 -914 c169 -44 300 -193 328 -374 29 -188 -72 -385 -241 -470 -272
-137 -592 30 -643 336 -37 226 117 460 338 512 60 14 154 12 218 -4z m-1893
-534 c222 -8 213 -1 227 -156 31 -338 211 -711 457 -946 79 -74 330 -245 425
-288 109 -49 233 -89 360 -116 143 -30 170 -41 185 -75 7 -17 8 -134 4 -370
-8 -462 0 -446 -223 -411 -190 31 -366 77 -394 103 -34 32 -30 76 27 298 27
107 48 195 47 196 -1 1 -45 13 -97 28 l-94 27 -16 -21 c-9 -11 -49 -84 -90
-162 -119 -224 -137 -234 -268 -146 -180 121 -328 236 -349 272 -28 48 -23 56
152 281 l63 80 -72 77 -71 78 -150 -105 c-157 -111 -186 -122 -233 -90 -28 20
-189 261 -231 346 -41 83 -48 127 -27 170 14 30 38 45 182 117 98 49 164 88
162 95 -19 67 -52 164 -58 171 -5 4 -84 -2 -177 -14 -218 -29 -228 -28 -264 6
-37 35 -43 55 -79 267 -36 212 -37 250 -10 277 19 19 33 20 228 19 114 -1 287
-4 384 -8z m3085 -2 c55 -21 73 -47 73 -108 0 -108 -56 -318 -98 -366 -46 -55
-46 -55 -338 -55 -245 0 -274 -2 -294 -18 -21 -17 -22 -24 -24 -267 -2 -277
-5 -290 -69 -339 -73 -56 -276 -125 -375 -129 -85 -3 -82 -17 -82 375 0 388
-6 365 97 393 199 53 340 197 379 387 18 89 34 115 77 127 46 13 619 14 654 0z
m-1983 -28 c10 -11 29 -50 42 -86 29 -81 64 -133 135 -202 96 -93 183 -146
292 -178 32 -9 70 -27 85 -40 l27 -23 3 -319 c2 -175 0 -332 -3 -349 -3 -17
-16 -43 -30 -58 -30 -33 -76 -34 -218 -6 -116 23 -221 71 -252 113 -20 29 -22
65 -25 580 0 9 -9 26 -20 37 -19 19 -33 20 -221 20 -232 0 -243 3 -298 88 -43
67 -102 250 -108 336 -9 111 -24 106 301 106 258 0 274 -1 290 -19z m3064 -17
c19 -22 22 -36 22 -112 0 -200 -74 -509 -175 -729 -34 -73 -55 -93 -98 -93
-32 0 -637 315 -659 343 -25 32 -22 82 12 183 40 117 66 222 79 312 10 74 27
107 63 121 10 3 178 5 375 3 l358 -3 23 -25z m-653 -916 c365 -187 357 -179
311 -271 -49 -95 -160 -239 -286 -370 -147 -153 -341 -322 -387 -338 -63 -21
-74 -8 -245 291 -198 347 -201 352 -193 390 4 20 44 67 127 147 66 65 152 159
190 208 70 91 106 118 143 110 11 -3 164 -78 340 -167z m-972 -430 c13 -13 82
-124 152 -248 71 -124 150 -259 177 -301 77 -122 66 -149 -93 -229 -148 -75
-363 -139 -604 -181 -151 -26 -197 -25 -232 5 l-28 24 -3 344 c-3 365 1 406
42 433 13 9 83 31 157 49 124 32 257 78 318 111 39 21 86 18 114 -7z"/>
<path d="M4455 2264 c-90 -15 -119 -37 -131 -100 -8 -45 9 -126 37 -170 39
-65 151 -93 225 -58 84 40 117 179 62 262 -50 74 -80 85 -193 66z"/>
<path d="M3931 1334 c-41 -7 -82 -21 -92 -30 -72 -65 -35 -240 61 -292 55 -29
140 -28 182 3 75 55 96 176 46 253 -50 75 -86 87 -197 66z"/>
<path d="M3025 759 c-75 -12 -105 -50 -105 -132 1 -131 70 -207 189 -207 91 0
161 80 161 183 0 57 -10 79 -58 130 -33 34 -41 37 -87 36 -27 -1 -72 -5 -100
-10z"/>
</g>
</svg>
