<?xml version="1.0" encoding="utf-8"?>
<!-- Generator: Adobe Illustrator 22.1.0, SVG Export Plug-In . SVG Version: 6.00 Build 0)  -->
<svg version="1.1" id="Layer_3" xmlns="http://www.w3.org/2000/svg" xmlns:xlink="http://www.w3.org/1999/xlink" x="0px" y="0px"
	 viewBox="0 0 384 220.9" style="enable-background:new 0 0 384 220.9;" xml:space="preserve">
<style type="text/css">
	.st0{fill:#EA591D;}
	.st1{fill:#FFFFFF;}
</style>
<g>
	<path class="st0" d="M200.7,58.9c0-5.3-4.3-9.5-9.5-9.5c-5.3,0-9.5,4.3-9.5,9.5c0,5.3,4.3,9.5,9.5,9.5S200.7,64.1,200.7,58.9"/>
	<path class="st0" d="M206.6,101.7c-0.6,2.8-3.1,3.8-5.6,2.5c-2.3-1.2-3-6.9,0.6-6.6c2.1-0.5,2.8-0.6,3.9,0.5
		C206.5,99.2,206.9,100.2,206.6,101.7 M207.9,90.7c0,0-0.9-1.9-3-0.8c-2,1.1-6.1,2.4-8.9,2.8c-2.3,0.4-2,2.4-2,2.4V109
		c0,0,0.3,1.8,2.5,1.5c2.1-0.3,11.7-1.5,17.5-5.1c0,0,2.5-1,1-2.9C213.6,100.7,207.9,90.7,207.9,90.7"/>
	<path class="st0" d="M225.5,89.7c-0.6,2.8-3.1,3.8-5.6,2.5c-2.3-1.2-3-6.9,0.6-6.6c2.1-0.5,2.8-0.6,3.9,0.5
		C225.4,87.2,225.8,88.2,225.5,89.7 M234.5,87c0,0,1.6-2.1-0.6-3c-2.1-0.9-12.3-6.1-12.3-6.1s-1.7-1.2-3,0.8
		c-1.2,1.9-4.5,5.4-6.7,7.1c-1.8,1.4-0.6,3.1-0.6,3.1l6.9,12c0,0,1.2,1.4,2.9,0.1C222.9,99.8,231.3,92.9,234.5,87"/>
	<path class="st0" d="M236.5,70.3c-0.6,2.8-3.1,3.8-5.6,2.5c-2.3-1.2-3-6.9,0.6-6.6c2.1-0.5,2.8-0.6,3.9,0.5
		C236.4,67.8,236.8,68.8,236.5,70.3 M240.4,61.3c-2.3,0.2-13.7-0.1-13.7-0.1s-2.1-0.1-2.2,2.2c-0.1,2.3-1.2,5.9-2.2,8.5
		c-0.8,2.1,1.1,3,1.1,3l12.5,6.4c0,0,1.7,0.6,2.6-1.4c0.8-2,4.1-9.5,3.9-16.3C242.4,63.6,242.8,61,240.4,61.3"/>
	<path class="st0" d="M142.3,58.1c3.1,0.2,34.3,0,34.3,0c0.3-0.1,0.8-0.3,1.2-0.7c0.5-0.6,0.5-1.2,0.7-1.9c0-0.2,0.5-2.8,2-4.6
		c0.7-0.8,1.1-1,1.1-1.4c-0.1-0.8-2.1-1.3-3.1-1.3l-22-0.1c0,0-2.6,0.3-0.8-3.9c1.9-4.2,6.4-14.8,22.9-20.1c0,0,3.1-1.2,3.1,1
		s0,7.8,0,7.8s0.1,2.4-3.4,2.4H170c0,0-2.7-0.3-3.9,1.6c-1.2,1.9-4.3,5.8,0.8,5.8H188c0,0,3.3-0.3,3.4-3.6c0-2-0.1-28.4-0.1-28.4
		s0.9-2.8-3.6-2.3s-40.7,3.1-47.5,46.9C140,55.3,139.2,58,142.3,58.1"/>
	<path class="st0" d="M187.1,93c-0.2-0.1-0.5-0.2-0.8-0.2c-0.7-0.1-2.6-0.4-5.1-1.1c-0.1,0-0.1,0-0.2-0.1c-0.1,0-0.2-0.1-0.3-0.1
		h-0.1c-1.6-0.5-3.3-1.2-5.1-2.1c-0.1-0.1-0.3-0.2-0.4-0.3c-1.7-1-4.6-3-5.9-3.9c-4.8-4.1-9.2-10.3-10.9-19.9
		c-0.1-1.6-0.2-2.9-0.2-2.9s0.4-1.4-2.8-1.4l-13.5-0.2c0,0-2-0.3-1.8,1.8c0.1,2.1,1.4,8.6,1.4,8.6s0.7,2.3,2.6,2
		c1-0.2,4.6-0.6,7.7-1c0.4,1.3,0.8,2.7,1.3,4.1l-6.8,3.3c0,0-1.4,0.9-0.7,2.9c0.9,2.8,4.8,8,4.8,8s1.3,2,2.9,0.8
		c0.8-0.6,3.5-2.4,6-4.1c0.9,1.1,1.9,2.2,3,3.2l-4.5,5.7c0,0-1.2,1.1,0.3,2.6c1.9,1.8,8.3,5.9,8.3,5.9s1.9,1,3-1.5
		c0.4-0.9,2-3.8,3.6-6.4c1.3,0.5,2.7,0.9,4.2,1.2l-1.8,7.2c0,0-1.2,2.9,0.8,3.5c4.1,1.4,11.6,2.4,11,2.1c0,0,1.2-0.4,1.4-2.3
		c0.2-2,0.2-12.8,0.2-12.8S189.4,93.4,187.1,93"/>
	<path class="st0" d="M239.9,44.6c-1,0.1-4.6,0.6-7.6,1c-0.4-1.2-0.8-2.6-1.3-3.9l6.8-3.2c0,0,1.3-0.8,0.7-2.8
		c-0.9-2.6-4.8-7.7-4.8-7.7s-1.3-1.9-2.9-0.8c-0.8,0.5-3.4,2.3-5.9,4c-0.9-1.1-1.9-2.1-3-3.1l4.4-5.5c0,0,1.2-1.1-0.3-2.5
		c-1.9-1.7-8.2-5.7-8.2-5.7s-1.9-1-3,1.4c-0.4,0.9-2,3.6-3.5,6.1c-1.3-0.5-2.7-0.8-4.1-1.2l1.8-7c0,0,1.2-2.8-0.8-3.4
		c-4-1.3-11.4-2.3-10.8-2c0,0-1.2,0.3-1.4,2.2s-0.2,12.3-0.2,12.3s-0.8,2.1,1.5,2.5c0.2,0.1,0.5,0.2,0.8,0.2
		c0.7,0.1,2.6,0.4,5.1,1.1c0.1,0,0.1,0,0.2,0.1c0.1,0,0.2,0.1,0.3,0.1h0.1c1.5,0.5,3.3,1.1,5.1,2c0.1,0.1,0.3,0.2,0.4,0.3
		c1.7,1,4.5,2.9,5.8,3.7c4.7,3.9,9.1,9.9,10.8,19.1c0.1,1.5,0.2,2.8,0.2,2.8s-0.4,1.3,2.7,1.4l13.4,0.2c0,0,1.9,0.3,1.8-1.7
		s-1.4-8.3-1.4-8.3S241.8,44.4,239.9,44.6"/>
	<path class="st0" d="M186.8,71.3c-4.3-1-8.4-5.2-9-7.6s-1.6-2.7-1.6-2.7h-10.6c-1.9,0-1.5,1.9-1.5,1.9s0.4,3.6,2.1,6.9
		c1.2,2.3,2.7,2.4,2.7,2.4s5.1,0.1,7.4,0c2.2-0.1,1.8,2.2,1.8,2.2s-0.1,5.6,0,10c0.1,2.9,6.1,3.6,8.5,4s2.7-2.3,2.7-2.3
		s0-8.5,0-10.8C189.2,73,189.4,71.9,186.8,71.3"/>
	<path class="st0" d="M195.1,87.8c0,0,3.6-0.4,6.9-2.1c2.3-1.2,2.4-2.7,2.4-2.7s0.1-7,0-9.2s2.2-1.8,2.2-1.8s5.6,0.1,10,0
		c2.9-0.1,3.6-6.1,4-8.5s-2.3-2.7-2.3-2.7s-8.5,0-10.8,0s-3.7-0.2-4,2.4c-0.5,4.5-4.8,7.9-7.6,8.3c-2.5,0.4-2.7,1.6-2.7,1.6v13.2
		C193.2,88.2,195.1,87.8,195.1,87.8"/>
	<path class="st0" d="M197.6,47.2c4.3,1,6.1,5.2,6.7,7.6c0.6,2.4,1.6,2.7,1.6,2.7h12.9c1.9,0,1.5-1.9,1.5-1.9s-0.4-3.6-2.1-6.9
		c-1.2-2.3-2.7-2.4-2.7-2.4s-5.1-0.1-7.4,0c-2.2,0.1-1.8-2.2-1.8-2.2s0.1-5.6,0-10c-0.1-2.9-6.1-3.6-8.5-4s-2.7,2.3-2.7,2.3
		s0,8.5,0,10.8C195.2,45.5,195.1,46.6,197.6,47.2"/>
	<path class="st1" d="M77.3,207.9c-0.6-0.3-1.2-0.8-1.9-1.4c-0.7-0.6-1.5-1.6-2.4-2.8l-11.6-26.3l2.7-2.5l-5-2.6l-9.9-22.4
		c0.2-1.2,0.3-2.1,0.5-2.7c0.2-0.6,0.4-1.1,0.6-1.4c0.2-0.4,0.4-0.6,0.6-0.6h-17c0.3,0.1,0.6,0.3,0.8,0.6s0.4,0.8,0.6,1.4
		c0.2,0.6,0.3,1.5,0.3,2.7l-9.9,22.4l-4.3,2.6l2.1,2.5L12,203.7c-1,1.2-1.9,2.2-2.6,2.8c-0.7,0.6-1.3,1.1-1.8,1.4
		c-0.6,0.4-1.1,0.6-1.5,0.6h19.3c-0.4-0.1-0.7-0.3-0.9-0.6c-0.3-0.3-0.5-0.8-0.6-1.4c-0.2-0.6-0.2-1.6-0.1-2.8L30,190h25l6.2,13.7
		c-0.1,1.2-0.2,2.2-0.4,2.8s-0.3,1.1-0.5,1.4c-0.2,0.4-0.5,0.6-0.8,0.6H79C78.4,208.5,77.9,208.3,77.3,207.9 M42.4,160.3l8.9,21.1
		H33.5L42.4,160.3z M109.7,208c-0.3-0.3-0.6-0.8-0.8-1.4c-0.3-0.6-0.4-1.5-0.4-2.7v-22.8l2.5-3.5l4.4-2.5l-0.8-2.6L131,150
		c0.7-1,1.4-1.7,2-2.3c0.6-0.5,1.2-0.9,1.7-1.2c0.6-0.3,1.1-0.5,1.7-0.5h-17.1c0.4,0.1,0.6,0.3,0.8,0.5c0.1,0.3,0.1,0.6,0,1.1
		s-0.4,1.3-1,2.3l-16.3,23l-16.3-23c-0.6-1-0.9-1.8-1-2.3s-0.1-0.9,0-1.1c0.2-0.3,0.4-0.4,0.7-0.5h-17c0.6,0.1,1.1,0.3,1.7,0.6
		c0.5,0.3,1.1,0.6,1.7,1.2c0.6,0.5,1.3,1.3,2,2.2l16.5,22.4l-0.7,2.6l4.4,2.5l2.6,3.5v22.8c0,1.2-0.1,2.1-0.4,2.8
		c-0.3,0.6-0.6,1.1-0.9,1.4c-0.4,0.4-0.8,0.5-1.3,0.5H111C110.5,208.6,110.1,208.4,109.7,208 M197.9,207.9c-0.6-0.3-1.2-0.8-1.9-1.4
		c-0.7-0.6-1.5-1.6-2.4-2.8L182,177.4l2.7-2.5l-5-2.6l-9.9-22.4c0.2-1.2,0.3-2.1,0.5-2.7c0.2-0.6,0.4-1.1,0.6-1.4
		c0.2-0.4,0.4-0.6,0.6-0.6h-16.9c0.3,0.1,0.6,0.3,0.8,0.6s0.4,0.8,0.6,1.4c0.2,0.6,0.3,1.5,0.3,2.7l-9.9,22.4l-4.3,2.6l2.1,2.5
		l-11.5,26.3c-1,1.2-1.9,2.2-2.6,2.8c-0.7,0.6-1.3,1.1-1.8,1.4c-0.6,0.4-1.1,0.6-1.5,0.6H146c-0.4-0.1-0.7-0.3-0.9-0.6
		c-0.3-0.3-0.5-0.8-0.6-1.4c-0.2-0.6-0.2-1.6-0.1-2.8l6.2-13.7h25.2l6.2,13.7c-0.1,1.2-0.2,2.2-0.4,2.8s-0.3,1.1-0.5,1.4
		c-0.2,0.4-0.5,0.6-0.8,0.6h19.5C199.1,208.5,198.5,208.3,197.9,207.9 M163.1,160.3l8.9,21.1h-17.9L163.1,160.3z M230.4,208
		c-0.3-0.3-0.6-0.8-0.8-1.4c-0.3-0.6-0.4-1.5-0.4-2.7v-22.8l2.5-3.5l4.4-2.5l-0.8-2.6l16.2-22.4c0.7-1,1.4-1.7,2-2.3
		c0.6-0.5,1.2-0.9,1.7-1.2c0.6-0.3,1.1-0.5,1.7-0.5H240c0.4,0.1,0.6,0.3,0.8,0.5c0.1,0.3,0.1,0.6,0,1.1s-0.4,1.3-1,2.3l-16.3,23
		l-16.3-23c-0.6-1-0.9-1.8-1-2.3s-0.1-0.9,0-1.1c0.2-0.3,0.4-0.4,0.7-0.5h-17c0.6,0.1,1.1,0.3,1.7,0.6c0.5,0.3,1.1,0.6,1.7,1.2
		c0.6,0.5,1.3,1.3,2,2.2l16.5,22.4l-0.7,2.6l4.4,2.5l2.6,3.5v22.8c0,1.2-0.1,2.1-0.4,2.8c-0.3,0.6-0.6,1.1-0.9,1.4
		c-0.4,0.4-0.8,0.5-1.3,0.5h16.2C231.2,208.6,230.8,208.4,230.4,208 M318.6,207.9c-0.6-0.3-1.2-0.8-1.9-1.4
		c-0.7-0.6-1.5-1.6-2.4-2.8l-11.6-26.3l2.7-2.5l-5-2.6l-9.9-22.4c0.2-1.2,0.3-2.1,0.5-2.7c0.2-0.6,0.4-1.1,0.6-1.4
		c0.2-0.4,0.4-0.6,0.6-0.6h-16.9c0.3,0.1,0.6,0.3,0.8,0.6c0.2,0.3,0.4,0.8,0.6,1.4c0.2,0.6,0.3,1.5,0.3,2.7l-9.9,22.4l-4.3,2.6
		l2.1,2.5l-11.5,26.3c-1,1.2-1.9,2.2-2.6,2.8c-0.7,0.6-1.3,1.1-1.8,1.4c-0.6,0.4-1.1,0.6-1.5,0.6h19.3c-0.4-0.1-0.7-0.3-0.9-0.6
		c-0.3-0.3-0.5-0.8-0.6-1.4c-0.2-0.6-0.2-1.6-0.1-2.8l6.2-13.7h25.2l6.2,13.7c-0.1,1.2-0.2,2.2-0.4,2.8c-0.2,0.6-0.3,1.1-0.5,1.4
		c-0.2,0.4-0.5,0.6-0.8,0.6h19.5C319.8,208.5,319.2,208.3,318.6,207.9 M283.8,160.3l8.9,21.1h-17.9L283.8,160.3z M351.1,208
		c-0.3-0.3-0.6-0.8-0.8-1.4c-0.3-0.6-0.4-1.5-0.4-2.7v-22.8l2.5-3.5l4.4-2.5l-0.8-2.6l16.2-22.4c0.7-1,1.4-1.7,2-2.3
		c0.6-0.5,1.2-0.9,1.7-1.2c0.6-0.3,1.1-0.5,1.7-0.5h-17.1c0.4,0.1,0.6,0.3,0.8,0.5c0.1,0.3,0.1,0.6,0,1.1s-0.4,1.3-1,2.3L344,173
		l-16.3-23c-0.6-1-0.9-1.8-1-2.3s-0.1-0.9,0-1.1c0.2-0.3,0.4-0.4,0.7-0.5h-17c0.6,0.1,1.1,0.3,1.7,0.6c0.5,0.3,1.1,0.6,1.7,1.2
		c0.6,0.5,1.3,1.3,2,2.2l16.5,22.4l-0.7,2.6l4.4,2.5l2.6,3.5v22.8c0,1.2-0.1,2.1-0.4,2.8c-0.3,0.6-0.6,1.1-0.9,1.4
		c-0.4,0.4-0.8,0.5-1.3,0.5h16.2C351.9,208.6,351.5,208.4,351.1,208"/>
</g>
</svg>
