<?xml version="1.0" encoding="utf-8"?>
<!-- Generator: Adobe Illustrator 22.1.0, SVG Export Plug-In . SVG Version: 6.00 Build 0)  -->
<svg version="1.1" id="Layer_3" xmlns="http://www.w3.org/2000/svg" xmlns:xlink="http://www.w3.org/1999/xlink" x="0px" y="0px"
	 viewBox="0 0 504 111.3" style="enable-background:new 0 0 504 111.3;" xml:space="preserve">
<style type="text/css">
	.st0{fill:#FFFFFF;}
</style>
<g>
	<path class="st0" d="M73.8,54.9c0-5.3-4.3-9.5-9.5-9.5c-5.3,0-9.5,4.3-9.5,9.5c0,5.3,4.3,9.5,9.5,9.5S73.8,60.1,73.8,54.9"/>
	<path class="st0" d="M79.7,97.7c-0.6,2.8-3.1,3.8-5.6,2.5c-2.3-1.2-3-6.9,0.6-6.6c2.1-0.5,2.8-0.6,3.9,0.5
		C79.6,95.2,80,96.2,79.7,97.7 M81,86.7c0,0-0.9-1.9-3-0.8c-2,1.1-6.1,2.4-8.9,2.8c-2.3,0.4-2,2.4-2,2.4V105c0,0,0.3,1.8,2.5,1.5
		c2.1-0.3,11.7-1.5,17.5-5.1c0,0,2.5-1,1-2.9C86.7,96.7,81,86.7,81,86.7"/>
	<path class="st0" d="M98.6,85.7c-0.6,2.8-3.1,3.8-5.6,2.5c-2.3-1.2-3-6.9,0.6-6.6c2.1-0.5,2.8-0.6,3.9,0.5
		C98.5,83.2,98.9,84.2,98.6,85.7 M107.6,83c0,0,1.6-2.1-0.6-3c-2.1-0.9-12.3-6.1-12.3-6.1s-1.7-1.2-3,0.8c-1.2,1.9-4.5,5.4-6.7,7.1
		c-1.8,1.4-0.6,3.1-0.6,3.1l6.9,12c0,0,1.2,1.4,2.9,0.1C96,95.8,104.4,88.9,107.6,83"/>
	<path class="st0" d="M109.6,66.3c-0.6,2.8-3.1,3.8-5.6,2.5c-2.3-1.2-3-6.9,0.6-6.6c2.1-0.5,2.8-0.6,3.9,0.5
		C109.5,63.8,109.9,64.8,109.6,66.3 M113.5,57.3c-2.3,0.2-13.7-0.1-13.7-0.1s-2.1-0.1-2.2,2.2s-1.2,5.9-2.2,8.5
		c-0.8,2.1,1.1,3,1.1,3l12.5,6.4c0,0,1.7,0.6,2.6-1.4c0.8-2,4.1-9.5,3.9-16.3C115.5,59.6,115.9,57,113.5,57.3"/>
	<path class="st0" d="M15.4,54.1c3.1,0.2,34.3,0,34.3,0c0.3-0.1,0.8-0.3,1.2-0.7c0.5-0.6,0.5-1.2,0.7-1.9c0-0.2,0.5-2.8,2-4.6
		c0.7-0.8,1.1-1,1.1-1.4c-0.1-0.8-2.1-1.3-3.1-1.3l-22-0.1c0,0-2.6,0.3-0.8-3.9c1.9-4.2,6.4-14.8,22.9-20.1c0,0,3.1-1.2,3.1,1
		s0,7.8,0,7.8s0.1,2.4-3.4,2.4h-8.3c0,0-2.7-0.3-3.9,1.6c-1.2,1.9-4.3,5.8,0.8,5.8h21.1c0,0,3.3-0.3,3.4-3.6c0-2-0.1-28.4-0.1-28.4
		s0.9-2.8-3.6-2.3S20.1,7.5,13.3,51.3C13.1,51.3,12.3,54,15.4,54.1"/>
	<path class="st0" d="M60.2,89c-0.2-0.1-0.5-0.2-0.8-0.2c-0.7-0.1-2.6-0.4-5.1-1.1c-0.1,0-0.1,0-0.2-0.1c-0.1,0-0.2-0.1-0.3-0.1
		h-0.1c-1.6-0.5-3.3-1.2-5.1-2.1c-0.1-0.1-0.3-0.2-0.4-0.3c-1.7-1-4.6-3-5.9-3.9c-4.8-4.1-9.2-10.3-10.9-19.9
		c-0.1-1.6-0.2-2.9-0.2-2.9s0.4-1.4-2.8-1.4l-13.5-0.2c0,0-2-0.3-1.8,1.8c0.1,2.1,1.4,8.6,1.4,8.6s0.7,2.3,2.6,2
		c1-0.2,4.6-0.6,7.7-1c0.4,1.3,0.8,2.7,1.3,4.1l-6.8,3.3c0,0-1.4,0.9-0.7,2.9c0.9,2.8,4.8,8,4.8,8s1.3,2,2.9,0.8
		c0.8-0.6,3.5-2.4,6-4.1c0.9,1.1,1.9,2.2,3,3.2l-4.5,5.7c0,0-1.2,1.1,0.3,2.6c1.9,1.8,8.3,5.9,8.3,5.9s1.9,1,3-1.5
		c0.4-0.9,2-3.8,3.6-6.4c1.3,0.5,2.7,0.9,4.2,1.2l-1.8,7.2c0,0-1.2,2.9,0.8,3.5c4.1,1.4,11.6,2.4,11,2.1c0,0,1.2-0.4,1.4-2.3
		c0.2-2,0.2-12.8,0.2-12.8S62.5,89.4,60.2,89"/>
	<path class="st0" d="M113,40.6c-1,0.1-4.6,0.6-7.6,1c-0.4-1.2-0.8-2.6-1.3-3.9l6.8-3.2c0,0,1.3-0.8,0.7-2.8
		c-0.9-2.6-4.8-7.7-4.8-7.7s-1.3-1.9-2.9-0.8c-0.8,0.5-3.4,2.3-5.9,4c-0.9-1.1-1.9-2.1-3-3.1l4.4-5.5c0,0,1.2-1.1-0.3-2.5
		c-1.9-1.7-8.2-5.7-8.2-5.7s-1.9-1-3,1.4c-0.4,0.9-2,3.6-3.5,6.1c-1.3-0.5-2.7-0.8-4.1-1.2l1.8-7c0,0,1.2-2.8-0.8-3.4
		c-4-1.3-11.4-2.3-10.8-2c0,0-1.2,0.3-1.4,2.2s-0.2,12.3-0.2,12.3s-0.8,2.1,1.5,2.5c0.2,0.1,0.5,0.2,0.8,0.2
		c0.7,0.1,2.6,0.4,5.1,1.1c0.1,0,0.1,0,0.2,0.1c0.1,0,0.2,0.1,0.3,0.1h0.1c1.5,0.5,3.3,1.1,5.1,2c0.1,0.1,0.3,0.2,0.4,0.3
		c1.7,1,4.5,2.9,5.8,3.7c4.7,3.9,9.1,9.9,10.8,19.1c0.1,1.5,0.2,2.8,0.2,2.8s-0.4,1.3,2.7,1.4l13.4,0.2c0,0,1.9,0.3,1.8-1.7
		s-1.4-8.3-1.4-8.3S114.9,40.4,113,40.6"/>
	<path class="st0" d="M59.9,67.3c-4.3-1-8.4-5.2-9-7.6S49.3,57,49.3,57H38.7c-1.9,0-1.5,1.9-1.5,1.9s0.4,3.6,2.1,6.9
		c1.2,2.3,2.7,2.4,2.7,2.4s5.1,0.1,7.4,0c2.2-0.1,1.8,2.2,1.8,2.2s-0.1,5.6,0,10c0.1,2.9,6.1,3.6,8.5,4s2.7-2.3,2.7-2.3
		s0-8.5,0-10.8C62.3,69,62.5,67.9,59.9,67.3"/>
	<path class="st0" d="M68.2,83.8c0,0,3.6-0.4,6.9-2.1c2.3-1.2,2.4-2.7,2.4-2.7s0.1-7,0-9.2s2.2-1.8,2.2-1.8s5.6,0.1,10,0
		c2.9-0.1,3.6-6.1,4-8.5s-2.3-2.7-2.3-2.7s-8.5,0-10.8,0s-3.7-0.2-4,2.4c-0.5,4.5-4.8,7.9-7.6,8.3c-2.5,0.4-2.7,1.6-2.7,1.6v13.2
		C66.3,84.2,68.2,83.8,68.2,83.8"/>
	<path class="st0" d="M70.7,43.2c4.3,1,6.1,5.2,6.7,7.6c0.6,2.4,1.6,2.7,1.6,2.7h12.9c1.9,0,1.5-1.9,1.5-1.9S93,48,91.3,44.7
		c-1.2-2.3-2.7-2.4-2.7-2.4s-5.1-0.1-7.4,0c-2.2,0.1-1.8-2.2-1.8-2.2s0.1-5.6,0-10c-0.1-2.9-6.1-3.6-8.5-4s-2.7,2.3-2.7,2.3
		s0,8.5,0,10.8C68.3,41.5,68.2,42.6,70.7,43.2"/>
	<path class="st0" d="M197.3,92.6c-0.6-0.3-1.2-0.8-1.9-1.4s-1.5-1.6-2.4-2.8l-11.6-26.3l2.7-2.5l-5-2.6l-9.9-22.4
		c0.2-1.2,0.3-2.1,0.5-2.7c0.2-0.6,0.4-1.1,0.6-1.4c0.2-0.4,0.4-0.6,0.6-0.6h-17c0.3,0.1,0.6,0.3,0.8,0.6s0.4,0.8,0.6,1.4
		c0.2,0.6,0.3,1.5,0.3,2.7L145.7,57l-4.3,2.6l2.1,2.5L132,88.4c-1,1.2-1.9,2.2-2.6,2.8c-0.7,0.6-1.3,1.1-1.8,1.4
		c-0.6,0.4-1.1,0.6-1.5,0.6h19.3c-0.4-0.1-0.7-0.3-0.9-0.6c-0.3-0.3-0.5-0.8-0.6-1.4c-0.2-0.6-0.2-1.6-0.1-2.8l6.2-13.7h25l6.2,13.7
		c-0.1,1.2-0.2,2.2-0.4,2.8s-0.3,1.1-0.5,1.4c-0.2,0.4-0.5,0.6-0.8,0.6H199C198.4,93.2,197.9,93,197.3,92.6 M162.4,45l8.9,21.1
		h-17.8L162.4,45z M229.7,92.7c-0.3-0.3-0.6-0.8-0.8-1.4c-0.3-0.6-0.4-1.5-0.4-2.7V65.8l2.5-3.5l4.4-2.5l-0.8-2.6L251,34.7
		c0.7-1,1.4-1.7,2-2.3c0.6-0.5,1.2-0.9,1.7-1.2c0.6-0.3,1.1-0.5,1.7-0.5h-17.1c0.4,0.1,0.6,0.3,0.8,0.5c0.1,0.3,0.1,0.6,0,1.1
		c-0.1,0.5-0.4,1.3-1,2.3l-16.3,23l-16.3-23c-0.6-1-0.9-1.8-1-2.3s-0.1-0.9,0-1.1c0.2-0.3,0.4-0.4,0.7-0.5h-17
		c0.6,0.1,1.1,0.3,1.7,0.6c0.5,0.3,1.1,0.6,1.7,1.2c0.6,0.5,1.3,1.3,2,2.2l16.5,22.4l-0.7,2.6l4.4,2.5l2.6,3.5v22.8
		c0,1.2-0.1,2.1-0.4,2.8c-0.3,0.6-0.6,1.1-0.9,1.4c-0.4,0.4-0.8,0.5-1.3,0.5H231C230.5,93.3,230.1,93.1,229.7,92.7 M317.9,92.6
		c-0.6-0.3-1.2-0.8-1.9-1.4c-0.7-0.6-1.5-1.6-2.4-2.8L302,62.1l2.7-2.5l-5-2.6l-9.9-22.4c0.2-1.2,0.3-2.1,0.5-2.7
		c0.2-0.6,0.4-1.1,0.6-1.4c0.2-0.4,0.4-0.6,0.6-0.6h-16.9c0.3,0.1,0.6,0.3,0.8,0.6s0.4,0.8,0.6,1.4c0.2,0.6,0.3,1.5,0.3,2.7
		L266.4,57l-4.3,2.6l2.1,2.5l-11.5,26.3c-1,1.2-1.9,2.2-2.6,2.8c-0.7,0.6-1.3,1.1-1.8,1.4c-0.6,0.4-1.1,0.6-1.5,0.6H266
		c-0.4-0.1-0.7-0.3-0.9-0.6c-0.3-0.3-0.5-0.8-0.6-1.4c-0.2-0.6-0.2-1.6-0.1-2.8l6.2-13.7h25.2l6.2,13.7c-0.1,1.2-0.2,2.2-0.4,2.8
		c-0.2,0.6-0.3,1.1-0.5,1.4c-0.2,0.4-0.5,0.6-0.8,0.6h19.5C319.1,93.2,318.5,93,317.9,92.6 M283.1,45l8.9,21.1h-17.9L283.1,45z
		 M350.4,92.7c-0.3-0.3-0.6-0.8-0.8-1.4c-0.3-0.6-0.4-1.5-0.4-2.7V65.8l2.5-3.5l4.4-2.5l-0.8-2.6l16.2-22.4c0.7-1,1.4-1.7,2-2.3
		c0.6-0.5,1.2-0.9,1.7-1.2c0.6-0.3,1.1-0.5,1.7-0.5H360c0.4,0.1,0.6,0.3,0.8,0.5c0.1,0.3,0.1,0.6,0,1.1c-0.1,0.5-0.4,1.3-1,2.3
		l-16.3,23l-16.3-23c-0.6-1-0.9-1.8-1-2.3s-0.1-0.9,0-1.1c0.2-0.3,0.4-0.4,0.7-0.5h-17c0.6,0.1,1.1,0.3,1.7,0.6
		c0.5,0.3,1.1,0.6,1.7,1.2c0.6,0.5,1.3,1.3,2,2.2l16.5,22.4l-0.7,2.6l4.4,2.5l2.6,3.5v22.8c0,1.2-0.1,2.1-0.4,2.8
		c-0.3,0.6-0.6,1.1-0.9,1.4c-0.4,0.4-0.8,0.5-1.3,0.5h16.2C351.2,93.3,350.8,93.1,350.4,92.7 M438.6,92.6c-0.6-0.3-1.2-0.8-1.9-1.4
		c-0.7-0.6-1.5-1.6-2.4-2.8l-11.6-26.3l2.7-2.5l-5-2.6l-9.9-22.4c0.2-1.2,0.3-2.1,0.5-2.7c0.2-0.6,0.4-1.1,0.6-1.4
		c0.2-0.4,0.4-0.6,0.6-0.6h-16.9c0.3,0.1,0.6,0.3,0.8,0.6c0.2,0.3,0.4,0.8,0.6,1.4c0.2,0.6,0.3,1.5,0.3,2.7L387.1,57l-4.3,2.6
		l2.1,2.5l-11.5,26.3c-1,1.2-1.9,2.2-2.6,2.8s-1.3,1.1-1.8,1.4c-0.6,0.4-1.1,0.6-1.5,0.6h19.3c-0.4-0.1-0.7-0.3-0.9-0.6
		c-0.3-0.3-0.5-0.8-0.6-1.4c-0.2-0.6-0.2-1.6-0.1-2.8l6.2-13.7h25.2l6.2,13.7c-0.1,1.2-0.2,2.2-0.4,2.8c-0.2,0.6-0.3,1.1-0.5,1.4
		c-0.2,0.4-0.5,0.6-0.8,0.6h19.5C439.8,93.2,439.2,93,438.6,92.6 M403.8,45l8.9,21.1h-17.9L403.8,45z M471.1,92.7
		c-0.3-0.3-0.6-0.8-0.8-1.4c-0.3-0.6-0.4-1.5-0.4-2.7V65.8l2.5-3.5l4.4-2.5l-0.8-2.6l16.2-22.4c0.7-1,1.4-1.7,2-2.3
		c0.6-0.5,1.2-0.9,1.7-1.2c0.6-0.3,1.1-0.5,1.7-0.5h-17.1c0.4,0.1,0.6,0.3,0.8,0.5c0.1,0.3,0.1,0.6,0,1.1c-0.1,0.5-0.4,1.3-1,2.3
		l-16.3,23l-16.3-23c-0.6-1-0.9-1.8-1-2.3s-0.1-0.9,0-1.1c0.2-0.3,0.4-0.4,0.7-0.5h-17c0.6,0.1,1.1,0.3,1.7,0.6
		c0.5,0.3,1.1,0.6,1.7,1.2c0.6,0.5,1.3,1.3,2,2.2l16.5,22.4l-0.7,2.6l4.4,2.5l2.6,3.5v22.8c0,1.2-0.1,2.1-0.4,2.8
		c-0.3,0.6-0.6,1.1-0.9,1.4c-0.4,0.4-0.8,0.5-1.3,0.5h16.2C471.9,93.3,471.5,93.1,471.1,92.7"/>
</g>
</svg>
